<?xml version="1.0" encoding="UTF-8" standalone="no"?>
<svg width="120px" height="43px" viewBox="0 0 120 43" version="1.1" xmlns="http://www.w3.org/2000/svg" xmlns:xlink="http://www.w3.org/1999/xlink">
    <!-- Generator: sketchtool 40.3 (33839) - http://www.bohemiancoding.com/sketch -->
    <title>F6DEF3FC-FD2F-413C-940C-3D852CC19D1C</title>
    <desc>Created with sketchtool.</desc>
    <defs>
        <polygon id="path-1" points="0 42.3732856 119.9759 42.3732856 119.9759 0.300102564 0 0.300102564"></polygon>
    </defs>
    <g id="Page-1" stroke="none" stroke-width="1" fill="none" fill-rule="evenodd">
        <g id="Landing_2" transform="translate(-1185.000000, -2706.000000)">
            <g id="Page-1" transform="translate(1185.000000, 2706.000000)">
                <polygon id="Fill-1" fill="#FFFFFF" points="29.5926025 18.0883082 38.8918494 18.0883082 38.8918494 20.315149 32.0925188 20.315149 32.0925188 22.6581424 38.1673305 22.6581424 38.1673305 24.8620518 32.0925188 24.8620518 32.0925188 27.4832134 39.1253222 27.4832134 39.1253222 29.6871227 29.5926025 29.6871227"></polygon>
                <polygon id="Fill-2" fill="#FFFFFF" points="46.100636 29.6871227 41.2875816 18.0883082 44.0209707 18.0883082 47.4326862 27.0888925 47.666159 27.0888925 51.0537741 18.0883082 53.7640669 18.0883082 48.9279163 29.6871227"></polygon>
                <polygon id="Fill-3" fill="#FFFFFF" points="70.7691213 18.0883082 80.0683682 18.0883082 80.0683682 20.315149 73.2690377 20.315149 73.2690377 22.6581424 79.3438494 22.6581424 79.3438494 24.8620518 73.2690377 24.8620518 73.2690377 27.4832134 80.301841 27.4832134 80.301841 29.6871227 70.7691213 29.6871227"></polygon>
                <polygon id="Fill-4" fill="#FFFFFF" points="92.4946946 27.4831635 92.4946946 29.6870729 83.2652385 29.6870729 83.2652385 18.0882583 85.7892552 18.0882583 85.7892552 27.4831635"></polygon>
                <g id="Group-15" transform="translate(0.000000, 0.198357)">
                    <path d="M25.0635314,19.5600072 C24.0116485,18.5156303 22.5164184,17.8895027 20.7651213,17.8895027 L15.8109791,17.8895027 L15.8109791,20.119833 L20.6712301,20.1173405 C21.7688033,20.1173405 22.6575063,20.4882314 23.2640335,21.114359 C23.8715649,21.7399881 24.2230293,22.6223494 24.2230293,23.6896577 C24.2230293,24.7330376 23.8956653,25.6144019 23.3112301,26.2175981 C22.7036987,26.8905856 21.816,27.2849064 20.6712301,27.2849064 L18.3108954,27.2849064 L18.3108954,22.3466738 L15.8109791,22.3466738 L15.8109791,29.4888157 L20.7651213,29.4888157 C22.5164184,29.4888157 24.0116485,28.8626881 25.0635314,27.8422397 C26.0913138,26.8207943 26.7219414,25.3362338 26.7219414,23.6896577 C26.7219414,22.0420847 26.0913138,20.5804556 25.0635314,19.5600072 L25.0635314,19.5600072 Z" id="Fill-5" fill="#FFFFFF"></path>
                    <polygon id="Fill-7" fill="#FFFFFF" points="60.9559833 24.0265503 58.6302929 17.8899015 55.8969038 17.8899015 59.7630126 27.2085348"></polygon>
                    <polygon id="Fill-9" fill="#FFFFFF" points="65.6629456 17.890051 61.3017741 29.4888656 63.5360837 29.4888656 68.3732385 17.890051"></polygon>
                    <polygon id="Fill-11" fill="#FFFFFF" points="102.360351 17.890051 99.8132385 17.890051 94.6271297 29.4888656 97.2671297 29.4888656 98.1779247 27.4245388 101.471649 27.4245388 100.49759 25.2206295 99.1359163 25.2206295 100.958008 20.6732281 101.122192 20.6732281 104.837172 29.4888656 107.547464 29.4888656"></polygon>
                    <mask id="mask-2" fill="white">
                        <use xlink:href="#path-1"></use>
                    </mask>
                    <g id="Clip-13"></g>
                    <path d="M46.5251907,0.915340774 C45.9286126,0.915340774 45.4923092,1.11867487 45.1984722,1.45461815 L45.1984722,-0.729013199 L43.8628496,-0.729013199 L43.8628496,5.45941573 L45.1984722,5.45941573 L45.1984722,5.04390693 C45.4923092,5.37985022 45.9286126,5.58318431 46.5251907,5.58318431 C47.6916344,5.58318431 48.6532827,4.56651384 48.6532827,3.24926254 C48.6532827,1.93201124 47.6916344,0.915340774 46.5251907,0.915340774 L46.5251907,0.915340774 Z M46.2580661,4.3278173 C45.6436797,4.3278173 45.1984722,3.9123085 45.1984722,3.24926254 C45.1984722,2.58621659 45.6436797,2.17070779 46.2580661,2.17070779 C46.8724525,2.17070779 47.3176601,2.58621659 47.3176601,3.24926254 C47.3176601,3.9123085 46.8724525,4.3278173 46.2580661,4.3278173 L46.2580661,4.3278173 Z M52.2861761,1.03910935 L52.2861761,3.45259664 C52.2861761,4.08028014 51.9478184,4.36317975 51.4580901,4.36317975 C51.0306909,4.36317975 50.683429,4.10680198 50.683429,3.55868399 L50.683429,1.03910935 L49.3478064,1.03910935 L49.3478064,3.75317747 C49.3478064,4.94666019 50.1135634,5.58318431 51.0128826,5.58318431 C51.6005565,5.58318431 52.0457641,5.37100961 52.2861761,5.04390693 L52.2861761,5.45941573 L53.6217987,5.45941573 L53.6217987,1.03910935 L52.2861761,1.03910935 Z M55.2690666,0.650122391 C55.70537,0.650122391 56.0704401,0.287657268 56.0704401,-0.145532757 C56.0704401,-0.578722782 55.70537,-0.941187906 55.2690666,-0.941187906 C54.8327632,-0.941187906 54.467693,-0.578722782 54.467693,-0.145532757 C54.467693,0.287657268 54.8327632,0.650122391 55.2690666,0.650122391 L55.2690666,0.650122391 Z M54.6012553,5.45941573 L55.9368779,5.45941573 L55.9368779,1.03910935 L54.6012553,1.03910935 L54.6012553,5.45941573 Z M56.9163344,5.45941573 L58.251957,5.45941573 L58.251957,-0.994231582 L56.9163344,-0.994231582 L56.9163344,5.45941573 Z M62.4636203,-0.729013199 L62.4636203,1.45461815 C62.1697833,1.11867487 61.7334799,0.915340774 61.1369018,0.915340774 C59.9704581,0.915340774 59.0088098,1.93201124 59.0088098,3.24926254 C59.0088098,4.56651384 59.9704581,5.58318431 61.1369018,5.58318431 C61.7334799,5.58318431 62.1697833,5.37985022 62.4636203,5.04390693 L62.4636203,5.45941573 L63.7992429,5.45941573 L63.7992429,-0.729013199 L62.4636203,-0.729013199 Z M61.4040264,4.3278173 C60.78964,4.3278173 60.3444324,3.9123085 60.3444324,3.24926254 C60.3444324,2.58621659 60.78964,2.17070779 61.4040264,2.17070779 C62.0184128,2.17070779 62.4636203,2.58621659 62.4636203,3.24926254 C62.4636203,3.9123085 62.0184128,4.3278173 61.4040264,4.3278173 L61.4040264,4.3278173 Z M69.6670781,0.915340774 C69.0705001,0.915340774 68.6341967,1.11867487 68.3403597,1.45461815 L68.3403597,-0.729013199 L67.0047371,-0.729013199 L67.0047371,5.45941573 L68.3403597,5.45941573 L68.3403597,5.04390693 C68.6341967,5.37985022 69.0705001,5.58318431 69.6670781,5.58318431 C70.8335219,5.58318431 71.7951701,4.56651384 71.7951701,3.24926254 C71.7951701,1.93201124 70.8335219,0.915340774 69.6670781,0.915340774 L69.6670781,0.915340774 Z M69.3999536,4.3278173 C68.7855672,4.3278173 68.3403597,3.9123085 68.3403597,3.24926254 C68.3403597,2.58621659 68.7855672,2.17070779 69.3999536,2.17070779 C70.01434,2.17070779 70.4595475,2.58621659 70.4595475,3.24926254 C70.4595475,3.9123085 70.01434,4.3278173 69.3999536,4.3278173 L69.3999536,4.3278173 Z M75.0006644,1.03910935 L74.1636742,3.74433686 L73.1753135,1.03910935 L71.7061286,1.03910935 L73.4780546,5.25608164 C73.2821633,5.79535902 72.9883263,5.9898525 72.3650358,5.9898525 L72.3650358,7.22753829 C73.6116169,7.28942257 74.4040863,6.73246397 74.9027187,5.32680654 L76.4253285,1.03910935 L75.0006644,1.03910935 Z" id="build-by" fill="#FFFFFF" mask="url(#mask-2)"></path>
                    <polygon id="Fill-14" fill="#FFFFFF" mask="url(#mask-2)" points="119.97595 42.3732856 5.02092053e-05 42.3732856 5.02092053e-05 4.57432081 38.6842343 4.57432081 38.6842343 6.06984854 1.50632636 6.06984854 1.50632636 40.8777579 118.469674 40.8777579 118.469674 6.06984854 81.2917657 6.06984854 81.2917657 4.57432081 119.97595 4.57432081"></polygon>
                </g>
            </g>
        </g>
    </g>
</svg>