<svg width="222" height="53" viewBox="0 0 222 53" xmlns="http://www.w3.org/2000/svg"><title>22783850-145E-463D-8BEA-40203E222BB5</title><g fill="none" fill-rule="evenodd"><rect fill="#0081F9" width="222" height="53" rx="8"/><path fill="#FFF" d="M42.203 14.113l-4.851 13.373-4.881-13.373h-6.982v20.493h4.615V18.89l5.355 15.717h3.52l5.503-15.717.059 15.717h4.615V14.113zM62.705 25.98a2.484 2.484 0 0 0-.74-1.88c-.513-.522-1.173-.782-1.981-.782-.494 0-.928.077-1.302.231a3.268 3.268 0 0 0-.962.594 2.59 2.59 0 0 0-.621.84 2.71 2.71 0 0 0-.251.998h5.857zm3.758 6.195a7.062 7.062 0 0 1-2.693 2.055 8.215 8.215 0 0 1-3.372.724 9.242 9.242 0 0 1-3.121-.521 7.548 7.548 0 0 1-2.545-1.49 6.995 6.995 0 0 1-1.701-2.331c-.414-.907-.621-1.92-.621-3.04 0-1.118.207-2.131.62-3.039a7 7 0 0 1 1.702-2.33 7.548 7.548 0 0 1 2.545-1.49 9.226 9.226 0 0 1 3.12-.521c1.026 0 1.958.173 2.797.521a5.821 5.821 0 0 1 2.13 1.49c.581.647 1.03 1.424 1.345 2.33.316.908.474 1.92.474 3.04v1.36H56.848c.177.83.562 1.49 1.153 1.983.592.492 1.321.738 2.19.738.73 0 1.345-.16 1.848-.478a4.927 4.927 0 0 0 1.317-1.23l3.107 2.229zm11.507-7.497c-.65-.79-1.508-1.187-2.574-1.187-.375 0-.74.087-1.095.26-.354.174-.532.474-.532.899 0 .347.182.603.547.766.366.165.829.31 1.39.435.563.125 1.164.26 1.806.405.64.145 1.242.372 1.804.68a4.013 4.013 0 0 1 1.39 1.259c.365.531.548 1.24.548 2.128 0 .907-.202 1.654-.607 2.243a4.617 4.617 0 0 1-1.552 1.418 6.765 6.765 0 0 1-2.13.752c-.79.145-1.569.218-2.337.218-1.007 0-2.023-.14-3.048-.42-1.026-.28-1.894-.776-2.603-1.49l2.691-2.924c.415.502.874.883 1.377 1.143.502.261 1.089.391 1.76.391.513 0 .976-.072 1.39-.217.415-.145.621-.41.621-.796 0-.366-.182-.641-.547-.825-.365-.183-.828-.338-1.39-.463-.563-.125-1.165-.26-1.805-.406a7.555 7.555 0 0 1-1.805-.65 3.746 3.746 0 0 1-1.39-1.23c-.365-.531-.547-1.24-.547-2.128 0-.83.172-1.544.517-2.143a4.486 4.486 0 0 1 1.36-1.475 5.958 5.958 0 0 1 1.939-.854 9.083 9.083 0 0 1 2.218-.275c.948 0 1.904.135 2.87.405.967.27 1.785.752 2.456 1.447l-2.722 2.634zm13.698 0c-.651-.79-1.509-1.187-2.574-1.187-.375 0-.74.087-1.095.26-.355.174-.532.474-.532.899 0 .347.182.603.547.766.365.165.828.31 1.39.435.563.125 1.164.26 1.805.405.64.145 1.243.372 1.805.68a4.013 4.013 0 0 1 1.39 1.259c.365.531.547 1.24.547 2.128 0 .907-.202 1.654-.606 2.243a4.617 4.617 0 0 1-1.553 1.418 6.765 6.765 0 0 1-2.13.752c-.79.145-1.568.218-2.337.218-1.006 0-2.023-.14-3.048-.42-1.026-.28-1.893-.776-2.603-1.49l2.692-2.924c.415.502.873.883 1.376 1.143.503.261 1.09.391 1.76.391a4.18 4.18 0 0 0 1.39-.217c.415-.145.622-.41.622-.796 0-.366-.183-.641-.547-.825-.366-.183-.829-.338-1.39-.463-.563-.125-1.165-.26-1.806-.406a7.555 7.555 0 0 1-1.804-.65 3.746 3.746 0 0 1-1.39-1.23c-.366-.531-.548-1.24-.548-2.128 0-.83.173-1.544.518-2.143a4.486 4.486 0 0 1 1.36-1.475 5.958 5.958 0 0 1 1.938-.854 9.083 9.083 0 0 1 2.219-.275c.947 0 1.903.135 2.87.405.966.27 1.785.752 2.455 1.447l-2.721 2.634zm13.49 3.763c-.336 0-.755.015-1.257.043a6.504 6.504 0 0 0-1.45.247 3.257 3.257 0 0 0-1.183.607c-.326.27-.488.647-.488 1.129 0 .521.226.907.68 1.158.453.251.927.376 1.42.376.434 0 .853-.057 1.257-.173a3.81 3.81 0 0 0 1.08-.492c.315-.212.567-.483.754-.81.188-.329.281-.715.281-1.158v-.927h-1.094zm1.094 4.4h-.059a4.152 4.152 0 0 1-1.967 1.62 6.894 6.894 0 0 1-2.589.493c-.67 0-1.316-.092-1.937-.275a4.919 4.919 0 0 1-1.642-.825 3.997 3.997 0 0 1-1.124-1.36c-.277-.54-.415-1.168-.415-1.882 0-.81.153-1.495.459-2.055.305-.56.72-1.023 1.242-1.39a6.225 6.225 0 0 1 1.79-.854 13.43 13.43 0 0 1 2.086-.448c.72-.096 1.44-.155 2.16-.174a75.91 75.91 0 0 1 1.996-.028c0-.772-.28-1.385-.843-1.839-.562-.453-1.227-.68-1.996-.68-.73 0-1.396.15-1.997.448-.602.3-1.14.71-1.613 1.23l-2.367-2.372a8.18 8.18 0 0 1 2.9-1.694 10.564 10.564 0 0 1 3.432-.564c1.301 0 2.371.159 3.21.477.837.319 1.508.787 2.011 1.404.503.618.853 1.375 1.05 2.272.197.898.296 1.935.296 3.112v7.15h-4.083V32.84zm10.768-5.355a3.374 3.374 0 0 0 1.021 2.416c.325.319.7.575 1.124.768.424.193.892.29 1.406.29.492 0 .956-.097 1.39-.29a3.845 3.845 0 0 0 1.14-.767 3.41 3.41 0 0 0 .754-1.1c.177-.415.266-.854.266-1.317 0-.463-.089-.902-.266-1.317a3.392 3.392 0 0 0-.755-1.1 3.857 3.857 0 0 0-1.139-.767 3.39 3.39 0 0 0-1.39-.29c-.514 0-.982.097-1.406.29a3.918 3.918 0 0 0-1.124.767 3.4 3.4 0 0 0-.754 1.1 3.314 3.314 0 0 0-.266 1.317zm11.184 5.933c0 2.664-.686 4.685-2.057 6.064-1.37 1.38-3.457 2.07-6.257 2.07-1.282 0-2.544-.14-3.786-.42a8.651 8.651 0 0 1-3.432-1.635l2.455-3.59a9.339 9.339 0 0 0 2.175 1.332c.76.328 1.592.492 2.5.492 1.361 0 2.361-.323 3.003-.969.64-.647.961-1.472.961-2.475v-1.36h-.06a4.17 4.17 0 0 1-1.908 1.432c-.759.28-1.474.42-2.144.42-1.065 0-2.032-.178-2.9-.536a6.46 6.46 0 0 1-2.233-1.505 6.67 6.67 0 0 1-1.435-2.301c-.335-.887-.503-1.862-.503-2.923 0-.926.153-1.834.459-2.721a7.398 7.398 0 0 1 1.301-2.345 6.515 6.515 0 0 1 2.056-1.635c.809-.414 1.726-.622 2.752-.622a6.9 6.9 0 0 1 1.73.203c.523.135.99.308 1.406.52.414.213.769.449 1.065.71.295.26.532.516.71.767h.059v-1.853h4.083v12.88zm13.401-7.439a2.487 2.487 0 0 0-.74-1.88c-.513-.522-1.174-.782-1.982-.782-.493 0-.927.077-1.302.231a3.288 3.288 0 0 0-.962.594c-.266.241-.472.52-.62.84a2.723 2.723 0 0 0-.252.998h5.858zm3.757 6.195a7.057 7.057 0 0 1-2.692 2.055 8.215 8.215 0 0 1-3.373.724 9.245 9.245 0 0 1-3.12-.521 7.548 7.548 0 0 1-2.545-1.49 7.004 7.004 0 0 1-1.701-2.331c-.415-.907-.621-1.92-.621-3.04 0-1.118.206-2.131.62-3.039a7.008 7.008 0 0 1 1.702-2.33 7.548 7.548 0 0 1 2.545-1.49 9.229 9.229 0 0 1 3.12-.521c1.026 0 1.958.173 2.796.521a5.826 5.826 0 0 1 2.13 1.49c.582.647 1.03 1.424 1.346 2.33.316.908.474 1.92.474 3.04v1.36h-10.296c.178.83.563 1.49 1.154 1.983.592.492 1.32.738 2.19.738.729 0 1.345-.16 1.848-.478a4.917 4.917 0 0 0 1.317-1.23l3.106 2.229z"/><path d="M157.346 25.363c.298.075.58.116.846.12.264.005.512.002.744-.007.77-.01 1.46-.179 2.072-.509a4.637 4.637 0 0 0 1.56-1.378c.428-.588.758-1.296.99-2.12.23-.824.346-1.74.346-2.748 0-.726-.088-1.348-.266-1.866-.18-.518-.434-.94-.766-1.265a3.005 3.005 0 0 0-1.207-.714 5.11 5.11 0 0 0-1.56-.226 6.652 6.652 0 0 0-1.285.127l-1.474 10.586zm-8.075 7.745l1.993-.423 2.427-17.667-2.138-.368.203-1.555h4.564c.877 0 1.697-.037 2.463-.112a22.897 22.897 0 0 1 2.261-.114c1.464 0 2.702.125 3.713.375 1.01.249 1.834.62 2.47 1.11a4.398 4.398 0 0 1 1.401 1.8c.298.713.463 1.535.491 2.468.038 1.384-.173 2.62-.636 3.702a7.14 7.14 0 0 1-2.044 2.742c-.9.745-1.995 1.31-3.286 1.696-1.29.387-2.74.58-4.348.58-.443 0-.788-.005-1.033-.014-.246-.01-.465-.024-.657-.042l-.664 5.399 4.015.423-.116 1.498h-11.238l.16-1.498zm22.521-12.098l-1.546-.848.23-1.258 4.782-.735.766.48-.202 3.718a7.342 7.342 0 0 1 .686-1.598 5.866 5.866 0 0 1 1.055-1.342 4.901 4.901 0 0 1 1.372-.92 3.95 3.95 0 0 1 1.625-.338c.25 0 .462.036.636.106s.298.13.375.177l-.996 5.045c-.058-.075-.224-.176-.499-.303-.274-.127-.653-.191-1.134-.191-.587 0-1.139.047-1.653.142-.516.093-.909.245-1.178.451l-1.546 11.01H169.9l1.892-13.596zm17.147 12.169c.442 0 .834-.125 1.177-.375.342-.25.642-.588.902-1.018a6.56 6.56 0 0 0 .65-1.497c.174-.57.311-1.176.412-1.816.101-.641.171-1.296.21-1.965a22.32 22.32 0 0 0 .029-1.95c-.02-.839-.075-1.541-.166-2.107-.092-.565-.217-1.017-.376-1.357-.16-.338-.352-.581-.578-.727a1.394 1.394 0 0 0-.773-.22c-.443 0-.843.123-1.2.368a3.48 3.48 0 0 0-.938.99 6.46 6.46 0 0 0-.686 1.448 12.64 12.64 0 0 0-.455 1.76 16.387 16.387 0 0 0-.238 1.908 20.181 20.181 0 0 0 .137 4.049c.087.59.212 1.07.375 1.442.164.372.37.643.622.813.25.169.549.254.896.254m-7.267-4.72c-.03-.953.044-1.868.217-2.75.173-.88.443-1.703.81-2.466a9.416 9.416 0 0 1 1.357-2.085 8.476 8.476 0 0 1 1.856-1.611 8.853 8.853 0 0 1 2.311-1.039 9.714 9.714 0 0 1 2.723-.367c2.118 0 3.735.546 4.847 1.64 1.112 1.093 1.702 2.703 1.77 4.833.028.952-.047 1.87-.225 2.756a10.861 10.861 0 0 1-.808 2.48 9.345 9.345 0 0 1-1.358 2.107 8.585 8.585 0 0 1-4.182 2.685 9.625 9.625 0 0 1-2.73.375c-2.12 0-3.728-.566-4.825-1.697-1.098-1.13-1.686-2.751-1.763-4.862" fill="#283844"/></g></svg>