<svg width="31" height="25" viewBox="0 0 31 25" xmlns="http://www.w3.org/2000/svg"><title>DC421819-988C-4EAE-A53C-7C97FEC632B8</title><path d="M9.643 24.96A17.806 17.806 0 0 1 0 22.133c.492.058.993.088 1.5.088 2.948 0 5.66-1.006 7.813-2.693a6.297 6.297 0 0 1-5.876-4.369 6.284 6.284 0 0 0 2.84-.108 6.294 6.294 0 0 1-5.045-6.247 6.265 6.265 0 0 0 2.85.787 6.288 6.288 0 0 1-2.8-5.236c0-1.153.311-2.234.853-3.163A17.86 17.86 0 0 0 15.1 7.765 6.291 6.291 0 0 1 21.229.04a6.28 6.28 0 0 1 4.592 1.986A12.596 12.596 0 0 0 29.816.501a6.31 6.31 0 0 1-2.766 3.48 12.576 12.576 0 0 0 3.613-.99 12.786 12.786 0 0 1-3.14 3.256c.013.27.019.54.019.814 0 8.313-6.328 17.898-17.899 17.898" fill="#FFF" fill-rule="evenodd"/></svg>